<?xml version="1.0" encoding="UTF-8" standalone="no"?>
<svg
   width="550"
   height="250"
   fill="none"
   viewbox="0 0 550 250"
   version="1.1"
   id="svg21"
   xmlns="http://www.w3.org/2000/svg"
   xmlns:svg="http://www.w3.org/2000/svg">
  <defs
     id="defs25" />
  <g
     id="g19">
    <title
       id="title9">Layer 1</title>
    <path
       stroke="null"
       id="svg_1"
       fill="#00FF9D"
       d="m549.99999,119l-289.99999,0l0,131l289.99999,0l0,-131z" />
    <path
       id="svg_4"
       fill="#00FF9D"
       d="m200,0l-162.5,0c-15.075,0 -37.5,9.9875 -37.5,37.5l0,175c0,27.512 22.425,37.5 37.5,37.5l187.5,0l0,-25l-187.35,0c-5.775,-0.15 -12.65,-2.425 -12.65,-12.5c0,-1.263 0.1125,-2.388 0.3,-3.413c1.4,-7.2 7.3,-8.962 12.35,-9.087l187.35,0l0,-175c0,-6.6304 -2.633,-12.9893 -7.323,-17.67762c-4.688,-4.68845 -11.046,-7.32238 -17.677,-7.32238zm0,112.5l-25,-12.5l-25,12.5l0,-87.5l50,0l0,87.5z" />
    <path
       id="svg_5"
       fill="#00FF9D"
       d="m210,13l-73,0l0,105l73,0l0,-105z" />
    <path
       id="svg_6"
       stroke-linejoin="round"
       stroke-linecap="round"
       stroke-width="17"
       stroke="#15081C"
       d="m163,104c-1.947,15.464 -11.694,32.534 -33.518,37.029c-21.824,4.495 -37.5538,-7.328 -45.482,-20.758" />
    <path
       id="svg_7"
       stroke-linejoin="round"
       stroke-linecap="round"
       stroke-width="17"
       stroke="#15081C"
       d="m84,73.0055c-3.1111,-4.9478 -9.2834,-9.3037 -17.8471,-7.6477c-8.5637,1.6562 -12.3889,7.9454 -13.1529,13.6422" />
    <path
       id="svg_8"
       stroke-linejoin="round"
       stroke-linecap="round"
       stroke-width="17"
       stroke="#15081C"
       d="m172,50.5771c-3.111,-5.3012 -9.283,-9.9681 -17.846,-8.1937c-8.565,1.7743 -12.389,8.5125 -13.154,14.6166" />
    <g
       aria-label="Peer"
       id="svg_10"
       style="font-weight:bold;font-size:110px;font-family:Inter;fill:#ffffff;stroke-width:0">
      <path
         d="m 338.71582,27.768555 q 0,5.371093 -1.87988,10.527343 -1.87989,5.102539 -5.3711,8.59375 -4.78027,4.726563 -10.68847,7.143555 -5.8545,2.416992 -14.60938,2.416992 H 293.33008 V 82.5 h -20.625 V 2.5244141 h 33.94531 q 7.62695,0 12.83691,1.3427734 5.26368,1.2890625 9.292,3.9208984 4.83398,3.1689451 7.3584,8.1103521 2.57812,4.941406 2.57812,11.870117 z m -21.32324,0.483398 q 0,-3.383789 -1.82617,-5.800781 -1.82618,-2.470703 -4.24317,-3.4375 -3.22265,-1.289063 -6.28418,-1.396485 -3.06152,-0.161132 -8.16406,-0.161132 h -3.54492 v 23.955078 h 5.9082 q 5.26367,0 8.64746,-0.644531 3.4375,-0.644532 5.74707,-2.578125 1.98731,-1.71875 2.84668,-4.082032 0.91309,-2.416992 0.91309,-5.854492 z"
         style="font-weight:bold;font-size:110px;font-family:Inter;fill:#ffffff;stroke-width:0"
         id="path573" />
      <path
         d="m 411.60156,55.913086 h -44.25781 q 0.42969,7.089844 5.37109,10.849609 4.99512,3.759766 14.66309,3.759766 6.12305,0 11.87012,-2.202149 5.74707,-2.202148 9.07715,-4.726562 h 2.14843 v 15.522461 q -6.55273,2.631836 -12.35351,3.813476 -5.80078,1.181641 -12.83692,1.181641 -18.15429,0 -27.82226,-8.164062 -9.66797,-8.164063 -9.66797,-23.256836 0,-14.931641 9.13086,-23.632813 9.18457,-8.754883 25.13672,-8.754883 14.71679,0 22.1289,7.465821 7.41211,7.412109 7.41211,21.376953 z M 392.37305,44.580078 q -0.16114,-6.069336 -3.00782,-9.130859 -2.84668,-3.061524 -8.8623,-3.061524 -5.58594,0 -9.18457,2.900391 -3.59863,2.900391 -4.02832,9.291992 z"
         style="font-weight:bold;font-size:110px;font-family:Inter;fill:#ffffff;stroke-width:0"
         id="path575" />
      <path
         d="m 484.64844,55.913086 h -44.25782 q 0.42969,7.089844 5.3711,10.849609 4.99512,3.759766 14.66308,3.759766 6.12305,0 11.87012,-2.202149 5.74707,-2.202148 9.07715,-4.726562 h 2.14844 v 15.522461 q -6.55274,2.631836 -12.35352,3.813476 -5.80078,1.181641 -12.83691,1.181641 -18.1543,0 -27.82227,-8.164062 -9.66797,-8.164063 -9.66797,-23.256836 0,-14.931641 9.13086,-23.632813 9.18457,-8.754883 25.13672,-8.754883 14.7168,0 22.12891,7.465821 7.41211,7.412109 7.41211,21.376953 z M 465.41992,44.580078 q -0.16113,-6.069336 -3.00781,-9.130859 -2.84668,-3.061524 -8.86231,-3.061524 -5.58593,0 -9.18457,2.900391 -3.59863,2.900391 -4.02832,9.291992 z"
         style="font-weight:bold;font-size:110px;font-family:Inter;fill:#ffffff;stroke-width:0"
         id="path577" />
      <path
         d="m 542.01172,40.605469 h -1.71875 q -1.23535,-0.429688 -3.97461,-0.644532 -2.73926,-0.214843 -4.56543,-0.214843 -4.13574,0 -7.30469,0.537109 -3.16894,0.537109 -6.82129,1.826172 V 82.5 H 498.29102 V 22.182617 h 19.33593 v 8.862305 q 6.3916,-5.478516 11.11817,-7.250977 4.72656,-1.826172 8.70117,-1.826172 1.02051,0 2.30957,0.05371 1.28906,0.05371 2.25586,0.161133 z"
         style="font-weight:bold;font-size:110px;font-family:Inter;fill:#ffffff;stroke-width:0"
         id="path579" />
    </g>
    <g
       aria-label="Note"
       id="svg_9"
       style="font-weight:bold;font-size:110px;font-family:Inter;fill:#15081c;stroke:#15081c;stroke-width:0">
      <path
         d="M 340.42969,214.5 H 320.55664 L 286.61133,159.60742 V 214.5 h -18.90625 v -79.97559 h 24.65332 l 29.16504,45.81543 v -45.81543 h 18.90625 z"
         style="font-weight:bold;font-size:110px;font-family:Inter;fill:#15081c;stroke:#15081c;stroke-width:0"
         id="path546" />
      <path
         d="m 421.5332,184.36816 q 0,14.87793 -8.70117,23.47168 -8.64746,8.54004 -24.33105,8.54004 -15.6836,0 -24.38477,-8.54004 -8.64746,-8.59375 -8.64746,-23.47168 0,-14.98535 8.70117,-23.52539 8.75488,-8.54004 24.33106,-8.54004 15.79101,0 24.38476,8.59375 8.64746,8.59375 8.64746,23.47168 z m -23.79394,14.66309 q 1.87988,-2.30957 2.79297,-5.53223 0.96679,-3.27636 0.96679,-9.02343 0,-5.31739 -0.96679,-8.91602 -0.9668,-3.59863 -2.68555,-5.74707 -1.71875,-2.20215 -4.13574,-3.11523 -2.41699,-0.91309 -5.20996,-0.91309 -2.79297,0 -4.99512,0.75195 -2.14844,0.75196 -4.13574,3.00782 -1.77246,2.09472 -2.84668,5.74707 -1.02051,3.65234 -1.02051,9.18457 0,4.9414 0.91309,8.59375 0.91308,3.59863 2.68554,5.80078 1.71875,2.09472 4.08203,3.06152 2.417,0.9668 5.47852,0.9668 2.63184,0 4.99512,-0.85938 2.41699,-0.91308 4.08203,-3.00781 z"
         style="font-weight:bold;font-size:110px;font-family:Inter;fill:#15081c;stroke:#15081c;stroke-width:0"
         id="path548" />
      <path
         d="m 474.0625,213.96289 q -3.11523,0.80566 -6.60645,1.23535 -3.49121,0.4834 -8.54003,0.4834 -11.2793,0 -16.81153,-4.56543 -5.47851,-4.56543 -5.47851,-15.62988 v -28.19824 h -7.94922 v -13.10547 h 7.94922 v -17.24121 h 19.33593 v 17.24121 h 18.10059 v 13.10547 h -18.10059 v 21.37695 q 0,3.16894 0.0537,5.53223 0.0537,2.36328 0.85938,4.24316 0.75195,1.87988 2.63184,3.00781 1.93359,1.07422 5.58593,1.07422 1.50391,0 3.9209,-0.64453 2.4707,-0.64453 3.4375,-1.18164 h 1.61133 z"
         style="font-weight:bold;font-size:110px;font-family:Inter;fill:#15081c;stroke:#15081c;stroke-width:0"
         id="path550" />
      <path
         d="m 544.96094,187.91309 h -44.25782 q 0.42969,7.08984 5.3711,10.84961 4.99512,3.75976 14.66308,3.75976 6.12305,0 11.87012,-2.20215 5.74707,-2.20215 9.07715,-4.72656 h 2.14844 v 15.52246 q -6.55274,2.63184 -12.35352,3.81348 -5.80078,1.18164 -12.83691,1.18164 -18.1543,0 -27.82227,-8.16406 -9.66797,-8.16407 -9.66797,-23.25684 0,-14.93164 9.13086,-23.63281 9.18457,-8.75489 25.13672,-8.75489 14.7168,0 22.12891,7.46582 7.41211,7.41211 7.41211,21.37696 z m -19.22852,-11.33301 q -0.16113,-6.06934 -3.00781,-9.13086 -2.84668,-3.06152 -8.86231,-3.06152 -5.58593,0 -9.18457,2.90039 -3.59863,2.90039 -4.02832,9.29199 z"
         style="font-weight:bold;font-size:110px;font-family:Inter;fill:#15081c;stroke:#15081c;stroke-width:0"
         id="path552" />
    </g>
  </g>
</svg>
